# xmcd
#
# Track frame offsets: 
#        150
#        17335
#        27892
#        43007
#        60822
#        78952
#        94450
#        107509
#        121726
#        139968
#        158304
#        173079
#        190276
#
# Disc length: 2753 seconds
#
# Revision: 0
# Processed by: cddbd v1.5.2PL0 Copyright (c) Steve Scherf et al.
# Submitted via: ExactAudioCopyFreeDBPlugin 1.0
#
DISCID=910abf0d
DTITLE=Big Tobacco and the Pickers - Big Tobacco and the Pickers
DYEAR=2010
DGENRE=Country
TTITLE0=The Drunker You Get
TTITLE1=Whispering Palms
TTITLE2=Time Ain't on Your Side
TTITLE3=Return To Sender (Say it Ain't So)
TTITLE4=Lonesome, On'ry and Mean
TTITLE5=My Own Hell
TTITLE6=No Good Gal
TTITLE7=I'm Fine
TTITLE8=Livin' by Rolling the Dice
TTITLE9=Hey Hillbilly
TTITLE10=Beans for Breakfast
TTITLE11=The Legend of Ma Barker
TTITLE12=Sing Me Back Home
EXTD=
EXTT0=
EXTT1=
EXTT2=
EXTT3=
EXTT4=
EXTT5=
EXTT6=
EXTT7=
EXTT8=
EXTT9=
EXTT10=
EXTT11=
EXTT12=
PLAYORDER=
